<svg xmlns="http://www.w3.org/2000/svg" width="15.331" height="15.042" viewBox="0 0 15.331 15.042"><defs><style>.a{fill:#fff}</style></defs><path class="a" d="M13.995 11.387L9.684 7.324a.2.2 0 0 0-.109-.062l-2.744-.915-2.714-2.713-.031-1.781a.319.319 0 0 0-.155-.264L1.512.114a.3.3 0 0 0-.372.047l-.977.977a.3.3 0 0 0-.047.372l1.411 2.45a.319.319 0 0 0 .264.155l1.892-.032 2.76 2.745a.335.335 0 0 0 .124.078l2.745.915 4.264 4.016.016.016c.279.233 1.256 1.194.9 1.706a.318.318 0 0 0 .078.434.441.441 0 0 0 .186.062.325.325 0 0 0 .248-.124c.743-1.055-.792-2.378-1.009-2.544zM1.977 3.479L.768 1.397l.636-.636 2.062 1.256.031 1.427z"/><path class="a" d="M13.765 14.348s-.589.264-1.644-.822c-1.163-1.194-3.722-3.722-4.125-4.125L7.484 7.85a.321.321 0 0 0-.388-.2.308.308 0 0 0-.2.387l.527 1.628a.335.335 0 0 0 .078.124c.031.031 2.915 2.884 4.171 4.171a2.776 2.776 0 0 0 1.907 1.039 1.2 1.2 0 0 0 .5-.109.309.309 0 0 0 .124-.419.336.336 0 0 0-.438-.123zM6.567 10.115l-2.822 2.791c-.279.279-.5.512-.7.744a1.672 1.672 0 0 1-1.6.76.307.307 0 1 0-.179.587.278.278 0 0 0 .07.013 1.685 1.685 0 0 0 .388.031 2.373 2.373 0 0 0 1.8-1.008c.186-.217.388-.434.651-.7l2.822-2.791a.3.3 0 0 0 .01-.424l-.01-.01a.313.313 0 0 0-.43.007zM5.931 7.665a.307.307 0 0 0-.434-.434c-.047.031-4.233 4.218-4.978 4.916a1.465 1.465 0 0 0-.326 1.845.3.3 0 0 0 .264.14.26.26 0 0 0 .155-.047.323.323 0 0 0 .109-.419.847.847 0 0 1 .233-1.07c.744-.699 4.807-4.758 4.977-4.931zM15.096 2.238a.35.35 0 0 0-.217-.2.269.269 0 0 0-.279.078l-1.272 1.223c-.016.016-1.116 1.132-1.892.636a.834.834 0 0 1-.279-.481 1.246 1.246 0 0 1 .31-1.241l1.6-1.582a.3.3 0 0 0 .078-.295.336.336 0 0 0-.217-.217 5.509 5.509 0 0 0-1.768-.14 3.775 3.775 0 0 0-2.667 1.675 3.1 3.1 0 0 0-.3 2.952l-.9.853a.307.307 0 0 0 .419.45l1.039-.992a.306.306 0 0 0 .062-.357 2.717 2.717 0 0 1 .14-2.512A3.207 3.207 0 0 1 11.202.64a5.063 5.063 0 0 1 .977.016l-1.167 1.178a1.844 1.844 0 0 0-.465 1.876 1.412 1.412 0 0 0 .543.806c1.21.76 2.621-.682 2.667-.729l.884-.837a2.783 2.783 0 0 1 0 1.427 2.84 2.84 0 0 1-1.985 2.031 5.491 5.491 0 0 1-2.244-.03.314.314 0 1 0-.24.58.273.273 0 0 0 .069.02 5.812 5.812 0 0 0 2.528.031 3.382 3.382 0 0 0 2.433-2.43 3.971 3.971 0 0 0-.106-2.341z"/></svg>