<svg xmlns="http://www.w3.org/2000/svg" width="15" height="15" viewBox="0 0 15 15"><defs><style>.a{fill:none}.b{fill:#fff}</style></defs><path class="a" d="M9.751 15a1 1 0 0 1-1-1V9.751a1 1 0 0 1 1-1H14a1 1 0 0 1 1 1V14a1 1 0 0 1-1 1zM1 15a1 1 0 0 1-1-1V9.751a1 1 0 0 1 1-1h4.251a1 1 0 0 1 1 1V14a1 1 0 0 1-1 1zm8.751-8.75a1 1 0 0 1-1-1V1a1 1 0 0 1 1-1H14a1 1 0 0 1 1 1v4.251a1 1 0 0 1-1 1zM1 6.25a1 1 0 0 1-1-1V1a1 1 0 0 1 1-1h4.251a1 1 0 0 1 1 1v4.251a1 1 0 0 1-1 1z"/><path class="b" d="M14 14.25a.25.25 0 0 0 .25-.25V9.751a.25.25 0 0 0-.25-.25H9.751a.25.25 0 0 0-.25.25V14a.25.25 0 0 0 .25.25H14m-8.749 0a.251.251 0 0 0 .25-.25V9.751a.251.251 0 0 0-.25-.25H1a.25.25 0 0 0-.25.25V14a.25.25 0 0 0 .25.25h4.251M14 5.5a.251.251 0 0 0 .25-.25V1A.25.25 0 0 0 14 .75H9.751a.25.25 0 0 0-.25.25v4.251a.251.251 0 0 0 .25.25H14m-8.749 0a.251.251 0 0 0 .25-.25V1a.251.251 0 0 0-.25-.25H1A.25.25 0 0 0 .75 1v4.251a.251.251 0 0 0 .25.25h4.251m8.749 9.5H9.751a1 1 0 0 1-1-1V9.752a1 1 0 0 1 1-1H14a1 1 0 0 1 1 1V14a1 1 0 0 1-1 1zm-8.749 0H1a1 1 0 0 1-1-1V9.752a1 1 0 0 1 1-1h4.251a1 1 0 0 1 1 1V14a1 1 0 0 1-1 1zM14 6.252H9.751a1 1 0 0 1-1-1V1a1 1 0 0 1 1-1H14a1 1 0 0 1 1 1v4.251a1 1 0 0 1-1 1zm-8.749 0H1a1 1 0 0 1-1-1V1a1 1 0 0 1 1-1h4.251a1 1 0 0 1 1 1v4.251a1 1 0 0 1-1 1z"/></svg>