<svg xmlns="http://www.w3.org/2000/svg" width="15.25" height="15.35" viewBox="0 0 15.25 15.35"><defs><style>.a{fill:#fff;stroke:#fff;stroke-width:.25px}</style></defs><path class="a" d="M13.556.125H1.681A1.564 1.564 0 0 0 .125 1.691v13.538h15V1.691A1.562 1.562 0 0 0 13.563.129h-.007zM8.112 14.6H4.135V6.881h3.984zm6.381 0H8.735V6.256H3.506V14.6H.75V1.691a.938.938 0 0 1 .938-.937h11.877a.938.938 0 0 1 .938.937z"/><path class="a" d="M12.265 10.175l-.663.756-.625-.744a.313.313 0 0 0-.469.413l1.125 1.25 1.131-1.3a.313.313 0 0 0-.469-.413zM11.607 6.65L10.482 7.9a.313.313 0 0 0 .429.456l.022-.023.018-.021.625-.744.663.756a.313.313 0 0 0 .469-.412z"/></svg>