<svg xmlns="http://www.w3.org/2000/svg" width="19.942" height="18.985" viewBox="0 0 19.942 18.985"><defs><style>.a{fill:#fff}</style></defs><path class="a" d="M15.28 2.831h.071a.721.721 0 0 1 .707.721.323.323 0 0 0 .646 0 1.37 1.37 0 0 0-1.075-1.336v-.31a.323.323 0 0 0-.646 0v.325a1.368 1.368 0 0 0 .357 2.689.722.722 0 1 1-.722.722.323.323 0 0 0-.646 0 1.37 1.37 0 0 0 1.015 1.321v.354a.323.323 0 1 0 .646 0v-.341a1.368 1.368 0 0 0-.293-2.7.721.721 0 0 1-.056-1.441z"/><path class="a" d="M15.355 0a4.636 4.636 0 0 0-4.32 3.038H3.017a.338.338 0 0 0-.323.338l-.077 11.329H.332a.318.318 0 0 0-.332.3v1.442a2.537 2.537 0 0 0 2.423 2.527v.007H12.4v-.009c.081 0 .114.009.165.009h.007a2.539 2.539 0 0 0 2.528-2.537V9.172c.081 0 .166.007.25.007a4.592 4.592 0 1 0 0-9.183zM2.546 18.338a1.9 1.9 0 0 1-1.9-1.892v-1.1h9.369v1.092a2.533 2.533 0 0 0 .748 1.8c.034.034.076.06.112.1zm11.912-1.89a1.891 1.891 0 0 1-1.888 1.89h-.006a1.906 1.906 0 0 1-1.9-1.9v-1.425a.3.3 0 0 0-.292-.308H3.263L3.34 3.68h7.519a4.86 4.86 0 0 0-.089.9 4.545 4.545 0 0 0 .39 1.849H8.106a.323.323 0 1 0 0 .646h3.4a4.559 4.559 0 0 0 2.95 2.023zm.9-7.911A3.941 3.941 0 1 1 19.3 4.596a3.94 3.94 0 0 1-3.942 3.941z"/><path class="a" d="M6.032 8.572a1 1 0 1 0 1.034 1 1.019 1.019 0 0 0-1.034-1zm0 1.356a.357.357 0 1 1 .388-.355.373.373 0 0 1-.388.359zM7.783 9.572a.324.324 0 0 0 .323.323h4.307a.323.323 0 1 0 0-.646H8.106a.323.323 0 0 0-.323.323zM6.032 5.767a1 1 0 1 0 1.034 1 1.019 1.019 0 0 0-1.034-1zm0 1.357a.357.357 0 1 1 .388-.355.373.373 0 0 1-.388.355zM6.032 11.384a1 1 0 1 0 1.034 1 1.019 1.019 0 0 0-1.034-1zm0 1.356a.357.357 0 1 1 .388-.355.373.373 0 0 1-.388.355zM12.413 12.072H8.106a.323.323 0 0 0 0 .646h4.309a.323.323 0 0 0 0-.646z"/></svg>