<svg xmlns="http://www.w3.org/2000/svg" width="9.113" height="10.701" viewBox="0 0 9.113 10.701"><defs><style>.a{fill:#fff}</style></defs><path class="a" d="M2.665 2.874a.208.208 0 0 0 .141-.055l.009-.008a.212.212 0 0 0-.3-.3.209.209 0 0 0 .147.358zm0 0"/><path class="a" d="M4.556 1.672a2.9 2.9 0 0 0-1.315.317.21.21 0 0 0 .191.372 2.441 2.441 0 0 1 1.125-.271A2.467 2.467 0 0 1 6.59 5.953l-.135.2a5.352 5.352 0 0 0-1.092 2.213H3.75a5.352 5.352 0 0 0-1.092-2.213l-.135-.2a2.468 2.468 0 0 1-.066-2.692.209.209 0 0 0-.355-.22 2.886 2.886 0 0 0 .077 3.149l.136.2a5.051 5.051 0 0 1 1.02 2.029.46.46 0 0 0-.242.4v.753a.46.46 0 0 0 .251.409v.176a.544.544 0 0 0 .543.543h1.338a.544.544 0 0 0 .543-.543v-.175a.46.46 0 0 0 .251-.409v-.752a.46.46 0 0 0-.242-.4 5.053 5.053 0 0 1 1.02-2.029l.136-.2a2.885 2.885 0 0 0-2.377-4.52zM5.601 8.82v.167h-.649a.209.209 0 0 0 0 .418h.649v.167a.042.042 0 0 1-.042.042H3.553a.042.042 0 0 1-.042-.042V8.82a.042.042 0 0 1 .042-.042H5.56a.042.042 0 0 1 .041.042zm-.376 1.463H3.887a.127.127 0 0 1-.125-.125v-.126h1.589v.125a.127.127 0 0 1-.126.126zm0 0M4.557 1.08a.209.209 0 0 0 .209-.209V.209a.209.209 0 1 0-.418 0v.662a.209.209 0 0 0 .209.209zm0 0M1.802 2.098a.212.212 0 0 0 .3-.3l-.468-.468a.212.212 0 0 0-.3.3zm0 0M.871 4.344H.209a.209.209 0 0 0 0 .418h.662a.209.209 0 0 0 0-.418zm0 0M1.802 7.015l-.468.468a.212.212 0 1 0 .3.3l.468-.468a.212.212 0 1 0-.3-.3zm0 0M7.311 7.015a.212.212 0 1 0-.3.3l.468.468a.212.212 0 0 0 .3-.3zm0 0M8.905 4.344h-.662a.209.209 0 1 0 0 .418h.662a.209.209 0 0 0 0-.418zm0 0M7.483 1.334l-.468.468a.212.212 0 0 0 .3.3l.468-.468a.212.212 0 1 0-.3-.3zm0 0"/><path class="a" d="M4.347 9.406a.209.209 0 0 0 0-.418.209.209 0 0 0 0 .418zm0 0M4.705 5.81a.209.209 0 1 0 0 .3.209.209 0 0 0 0-.3zm0 0M5.739 4.983a.209.209 0 0 0 .148-.357 1.883 1.883 0 0 0-2.66 0 .212.212 0 1 0 .3.3 1.465 1.465 0 0 1 2.069 0 .208.208 0 0 0 .143.057zm0 0"/><path class="a" d="M5.148 5.575a.209.209 0 0 0 .148-.357 1.046 1.046 0 0 0-1.478 0 .212.212 0 0 0 .3.3.628.628 0 0 1 .887 0 .209.209 0 0 0 .143.057zm0 0"/></svg>